<?xml version="1.0" standalone="no"?>
<!DOCTYPE svg PUBLIC "-//W3C//DTD SVG 20010904//EN"
 "http://www.w3.org/TR/2001/REC-SVG-20010904/DTD/svg10.dtd">
<svg version="1.0" xmlns="http://www.w3.org/2000/svg"
 width="642.981802pt" height="578.845455pt" viewBox="0 0 642.981802 578.845455"
 preserveAspectRatio="xMidYMid meet">
<metadata>
Created by potrace 1.12, written by Peter Selinger 2001-2015
</metadata>
<g transform="translate(-17.005876,593.896839) scale(0.100000,-0.100000)"
fill="#FDD218" stroke="none">
<path d="M199 5930 c-46 -27 -45 -32 60 -665 55 -330 118 -715 141 -855 78
-488 142 -670 311 -897 207 -275 470 -437 828 -509 69 -13 130 -26 135 -28 6
-1 -28 -23 -75 -48 -364 -200 -609 -524 -660 -877 -16 -115 -6 -343 20 -436
77 -281 244 -508 500 -684 50 -34 91 -68 91 -75 0 -8 -7 -30 -15 -51 -47 -111
-133 -468 -137 -568 -4 -109 37 -113 225 -23 458 217 813 460 1087 742 177
183 310 370 444 627 l45 86 10 -37 c6 -20 31 -136 55 -257 25 -121 50 -235 55
-254 20 -67 69 -92 105 -52 22 25 29 50 82 306 24 121 49 237 55 257 l10 37
45 -86 c209 -400 440 -670 809 -945 192 -143 456 -298 722 -424 188 -90 229
-86 225 23 -4 100 -90 457 -137 568 -8 21 -15 43 -15 51 0 7 41 41 91 75 256
176 423 403 500 684 26 93 36 321 20 436 -51 353 -296 677 -660 877 -47 25
-81 47 -75 48 5 2 66 15 135 28 358 72 621 234 828 509 169 227 233 409 311
897 23 140 86 525 141 855 106 637 106 640 58 665 -64 35 -529 -52 -869 -162
-588 -191 -1200 -561 -1580 -954 -166 -172 -278 -330 -391 -552 l-58 -114 -15
30 c-42 80 -169 152 -271 152 -102 0 -229 -72 -271 -152 l-15 -30 -58 114
c-206 406 -477 691 -961 1015 -487 326 -1096 563 -1646 643 -155 22 -210 24
-235 10z m3223 -1790 c49 -14 94 -52 121 -104 29 -56 28 -134 -6 -316 -42
-227 -47 -320 -47 -823 0 -259 -5 -534 -11 -611 -10 -135 -55 -476 -82 -622
l-13 -69 -27 170 c-69 433 -77 547 -77 1131 0 504 -5 597 -47 824 -33 180 -35
260 -6 315 27 52 62 83 110 100 47 17 41 17 85 5z"/>
</g>
<g transform="translate(-17.005876,593.896839) scale(0.100000,-0.100000)"
fill="#482F08" stroke="none">
<path d="M199 5930 c-46 -27 -45 -32 60 -665 55 -330 118 -715 141 -855 78
-488 142 -670 311 -897 207 -275 470 -437 828 -509 69 -13 130 -26 135 -28 6
-1 -28 -23 -75 -48 -364 -200 -609 -524 -660 -877 -16 -115 -6 -343 20 -436
77 -281 244 -508 500 -684 50 -34 91 -68 91 -75 0 -8 -7 -30 -15 -51 -47 -111
-133 -468 -137 -568 -4 -109 37 -113 225 -23 458 217 813 460 1087 742 177
183 310 370 444 627 l45 86 10 -37 c6 -20 31 -136 55 -257 25 -121 50 -235 55
-254 20 -67 69 -92 105 -52 22 25 29 50 82 306 24 121 49 237 55 257 l10 37
45 -86 c209 -400 440 -670 809 -945 192 -143 456 -298 722 -424 188 -90 229
-86 225 23 -4 100 -90 457 -137 568 -8 21 -15 43 -15 51 0 7 41 41 91 75 256
176 423 403 500 684 26 93 36 321 20 436 -51 353 -296 677 -660 877 -47 25
-81 47 -75 48 5 2 66 15 135 28 358 72 621 234 828 509 169 227 233 409 311
897 23 140 86 525 141 855 106 637 106 640 58 665 -64 35 -529 -52 -869 -162
-588 -191 -1200 -561 -1580 -954 -166 -172 -278 -330 -391 -552 l-58 -114 -15
30 c-42 80 -169 152 -271 152 -102 0 -229 -72 -271 -152 l-15 -30 -58 114
c-206 406 -477 691 -961 1015 -487 326 -1096 563 -1646 643 -155 22 -210 24
-235 10z m261 -205 c111 -13 468 -100 626 -153 82 -28 394 -161 496 -213 24
-12 86 -46 138 -77 510 -298 842 -585 1063 -922 66 -101 168 -312 211 -437 68
-199 106 -436 106 -664 l0 -119 -634 0 c-506 0 -658 3 -749 15 -324 42 -562
150 -753 340 -223 222 -303 419 -395 966 -16 101 -32 198 -34 214 -3 17 -11
77 -19 135 -15 106 -113 672 -121 700 -3 9 -9 49 -15 90 -5 41 -12 90 -16 108
-6 31 -5 33 17 28 13 -3 49 -8 79 -11z m5946 -17 c-4 -18 -11 -67 -16 -108 -6
-41 -12 -81 -15 -90 -8 -28 -106 -594 -121 -700 -8 -58 -16 -118 -19 -135 -2
-16 -18 -113 -34 -214 -92 -547 -172 -744 -395 -966 -191 -190 -429 -298 -753
-340 -91 -12 -243 -15 -749 -15 l-634 0 0 119 c0 228 38 465 106 664 43 125
145 336 211 437 221 337 553 624 1063 922 52 31 114 65 138 77 102 52 414 185
496 213 161 54 513 140 644 157 37 5 71 9 76 10 5 0 6 -14 2 -31z m-2984
-1568 c49 -14 94 -52 121 -104 29 -56 28 -134 -6 -316 -42 -227 -47 -320 -47
-823 0 -259 -5 -534 -11 -611 -10 -135 -55 -476 -82 -622 l-13 -69 -27 170
c-69 433 -77 547 -77 1131 0 504 -5 597 -47 824 -33 180 -35 260 -6 315 27 52
62 83 110 100 47 17 41 17 85 5z m-322 -1332 c1 -217 18 -672 30 -770 10 -83
9 -89 -14 -133 -14 -25 -49 -98 -79 -163 -204 -439 -488 -755 -957 -1067 -152
-101 -457 -272 -467 -261 -10 9 38 186 93 346 53 154 58 192 31 203 -41 16
-251 173 -328 245 -199 187 -285 373 -296 637 -11 276 65 477 257 679 174 181
394 308 663 381 147 40 187 42 645 44 l422 1 0 -142z m1613 104 c290 -78 509
-202 687 -388 192 -202 268 -403 257 -679 -11 -264 -97 -450 -296 -637 -77
-72 -287 -229 -328 -245 -27 -11 -22 -49 31 -203 55 -160 103 -337 93 -346
-10 -11 -315 160 -467 261 -469 312 -753 628 -957 1067 -30 65 -65 138 -79
163 -23 44 -24 50 -14 133 12 98 29 553 30 770 l0 144 463 -4 462 -4 118 -32z"/>
<path d="M2551 5774 c-32 -27 -48 -77 -36 -113 3 -12 41 -45 83 -73 99 -66
253 -221 320 -322 67 -101 123 -216 162 -336 31 -94 60 -251 60 -322 0 -85 87
-128 145 -70 27 27 28 28 22 127 -20 318 -177 670 -402 900 -105 108 -273 235
-309 235 -8 0 -28 -12 -45 -26z"/>
<path d="M4115 5773 c-74 -49 -180 -136 -250 -208 -225 -230 -382 -582 -402
-900 -6 -99 -5 -100 22 -127 58 -58 145 -15 145 70 0 71 29 228 60 322 39 120
95 235 162 336 67 101 221 256 320 322 42 28 80 61 83 73 12 36 -4 86 -36 113
-38 32 -53 32 -104 -1z"/>
</g>
</svg>
