<svg style="fill:#514543" xmlns="http://www.w3.org/2000/svg" xml:space="preserve" width="512" height="512"><path fill-rule="evenodd" d="M311.164 282.519c8.449-8.289 11.385-29.254 19.12-36.81 10.955-10.706 22.845-23.883 26.209-40.334 4.514-21.86-4.653-24.635-4.653-32.189 0-15.827-.144-41.822-5.086-58.706-.284-22.271-3.938-31.957-11.602-40.299-7.23-7.806-24.992-5.962-34.268-11.101-14.355-7.967-26.153-10.993-41.212-11.386v-.089c-.446 0-.876.053-1.322.053-.735 0-1.434-.053-2.204-.053l.037.142c-36.684 1.379-75.713 24.509-89.123 61.712-4.976 13.785-3.08 43.899-3.08 59.726 0 7.555-9.166 10.329-4.653 32.189 3.382 16.451 15.254 29.628 26.209 40.334 7.736 7.556 10.671 28.521 19.102 36.81 1.844 12.21 2.059 8.719 1.988 19.891-.019 3.777.107 9.632-5.925 15.396-11.405 10.921-37.597 34.607-59.082 43.827-28.32 12.156-74.37 31.6-84.985 37.077S18 419.029 18 428.481v44.33h480v-44.33c0-9.452-27.999-24.295-38.637-29.772-10.633-5.478-56.643-24.921-84.966-37.077-20.912-8.969-46.298-31.67-58.151-42.931-4.009-3.795-6.838-7.771-6.875-17.438-.069-11.242.218-6.946 2.007-18.744" clip-rule="evenodd"/></svg>